<svg
 xmlns="http://www.w3.org/2000/svg"
 xmlns:xlink="http://www.w3.org/1999/xlink"
 width="254px" height="128px">
<path fill="#0093D7" d="M199.1,128c0-25.3-10.4-43.4-27.5-57.3l33.7-42.3C234.4,51.5,253,87.5,253,128H199.1z"/>
<path fill="#A3CD3B" d="M128,54.8c-12.1,0-26.2,4.4-38.4,12.2L55.1,24C75.7,9.5,100.9,1,128,1c27.2,0,52.4,8.5,72.9,23l-34.5,43
	C151.7,57.1,140.1,54.8,128,54.8z"/>
<path fill="#FFC815" d="M55.6,128H0c0-40.5,19.3-76.5,49.2-99.6L84,70.7C65.3,85.3,55.6,102.7,55.6,128z"/>
</svg>
